<?xml version="1.0" encoding="utf-8"?>
<!-- Generator: Adobe Illustrator 26.3.1, SVG Export Plug-In . SVG Version: 6.00 Build 0)  -->
<svg version="1.1" id="Layer_1" xmlns="http://www.w3.org/2000/svg" xmlns:xlink="http://www.w3.org/1999/xlink" x="0px" y="0px"
	 viewBox="0 0 191.268 45" enable-background="new 0 0 191.268 45" xml:space="preserve">
<g>
	<path fill="#003F58" d="M30.193,5.877c-3.123-3.306-7.375-4.98-12.635-4.98c-0.936,0-3.943,0.023-6.213,0.023H0l0.002,1.044
		l0.325,0.056C0.461,2.042,3.78,2.284,3.78,6.38v24.503c-0.157,3.767-3.318,4.352-3.455,4.373L0,35.313v1.042h13.015
		c1.349,0.01,4.342,0.023,4.543,0.023c5.26,0,9.512-1.676,12.633-4.975c3.146-3.274,4.74-7.568,4.74-12.765
		S33.338,9.147,30.193,5.877z M15.61,34.997c-4.155,0-5.644-1.647-5.772-4.021c-0.002-0.028-0.002-0.053-0.004-0.08V6.393
		c0-2.943,1.644-3.897,4.038-4.111c6.125-0.545,13.414,6.083,13.414,18.879C27.286,32.316,22.259,34.997,15.61,34.997z"/>
	<path fill="#003F58" d="M54.888,14.565c0,1.821-1.474,3.297-3.295,3.297c-2.221,0-3.027-2.03-3.851-2.754
		c-0.927-0.816-2.523,0.646-2.523,2.387l0.013,14.232c0,3.146,1.594,3.708,2.28,3.708v0.6H36.663v-0.6
		c0.686,0,2.28-0.562,2.28-3.708l0.009-10.23l-0.009-3.889c0-3.147-1.594-3.708-2.28-3.708v-0.6l7.96-2.832
		c0.294-0.092,0.591,0.128,0.591,0.434l0.002,3.467c1.355-1.804,3.775-3.515,5.701-3.515C53.539,10.855,54.892,12.736,54.888,14.565
		z"/>
	<path fill="#003F58" d="M82.511,33.16v0.6l-7.96,2.832c-0.294,0.09-0.591-0.13-0.591-0.436l-0.004-3.406
		c-1.544,2.125-4.054,3.864-7.002,3.864c-5.002,0-8.973-1.317-8.973-9.55v-9.487c-0.013-3.117-1.594-3.677-2.278-3.677v-0.6
		l7.96-2.832c0.294-0.092,0.592,0.128,0.592,0.434l0.004,3.67c0.004,0.063,0.023,0.118,0.023,0.182l0.01,14.139
		c0,4.153,1.621,5.485,3.91,5.764c1.701,0.208,3.943-0.954,5.752-3.75l-0.013-13.3c0-3.147-1.594-3.708-2.28-3.708v-0.6l7.96-2.832
		c0.294-0.092,0.591,0.128,0.591,0.434l0.019,18.55C80.231,32.597,81.825,33.16,82.511,33.16z"/>
	<path fill="#003F58" d="M106.835,29.325c2.075-1.93,3.281-4.581,3.281-7.668c0-6.173-4.921-10.802-11.528-10.802
		c-1.978,0-3.761,0.432-5.353,1.158c-0.958-1.122-3.698-4.138-6.336-4.138c-1.8,0-3.429,1.458-3.432,3.257
		c0,1.798,1.154,3.257,2.953,3.257c2.777,0,3.738-3.308,5.445-1.6c-2.158,1.196-4.854,4-4.854,8.868
		c0,6.173,5.017,10.804,11.576,10.804c3.694,0,5.986-1.326,6.765-1.925c1.873,0.635,3.033,4.569-1.2,4.569H93.284
		c-0.942,0-1.831,0.101-2.66,0.296c-4.48,1.059-4.487,8.404-0.04,9.599c0.191-1.785,1.687-3.867,3.906-3.867h8.054
		c4.581,0,7.62-2.654,7.62-6.559C110.164,32.068,108.862,30.58,106.835,29.325z M103.729,22.836c-1.468,5-4.805,8.044-7.855,7.148
		c-2.997-0.881-4.21-5.26-2.741-10.261c1.468-5,4.858-8.029,7.855-7.148C104.037,13.47,105.197,17.835,103.729,22.836z"/>
	<path fill="#003F58" d="M135.888,7.874c-2.639,0-5.378,3.016-6.337,4.138c-1.592-0.726-3.375-1.158-5.353-1.158
		c-6.607,0-11.528,4.629-11.528,10.802c0,3.088,1.206,5.739,3.281,7.668c-2.026,1.254-3.329,2.743-3.329,5.249
		c0,3.905,3.039,6.559,7.62,6.559h8.054c2.219,0,3.715,2.082,3.906,3.867c4.447-1.196,4.44-8.54-0.04-9.599
		c-0.829-0.195-1.718-0.296-2.66-0.296h-10.869c-4.233,0-3.073-3.934-1.2-4.569c0.778,0.6,3.071,1.925,6.765,1.925
		c6.559,0,11.576-4.631,11.576-10.804c0-4.868-2.695-7.673-4.854-8.868c1.708-1.707,2.668,1.6,5.445,1.6
		c1.8,0,2.953-1.46,2.953-3.257C139.317,9.332,137.688,7.874,135.888,7.874z M126.913,29.984c-3.05,0.896-6.387-2.148-7.855-7.148
		c-1.468-5-0.308-9.365,2.741-10.261c2.997-0.881,6.387,2.148,7.855,7.148C131.122,24.724,129.91,29.103,126.913,29.984z"/>
	<path fill="#003F58" d="M151.12,35.433v0.6h-10.848v-0.6c0.686,0,2.28-0.562,2.28-3.708l0.009-10.23l-0.009-3.889
		c0-3.147-1.594-3.708-2.28-3.708v-0.6l7.96-2.832c0.294-0.092,0.591,0.128,0.591,0.434l0.019,20.822
		C148.842,34.869,150.436,35.431,151.12,35.433z"/>
	<path fill="#003F58" d="M173.158,28.553c0,5.21-4.629,8.057-10.515,8.057c-4.583,0-8.006-1.737-10.37-3.763l3.039-4.149
		c0.854,2.418,3.381,6.8,7.186,6.8c3.107,0,4.34-2.662,4.34-4.157c0-2.641-2.121-4.426-4.822-5.053
		c-3.906-0.869-8.971-2.074-8.971-7.669c0-5.208,4.583-7.765,10.032-7.765c4.195,0,7.331,1.493,9.55,3.23l-3.039,4.197
		c-0.95-2.672-3.367-5.986-6.368-5.986c-2.307,0-3.857,1.516-3.857,3.876c0,1.64,0.959,3.681,4.822,4.713
		C168.053,21.919,173.158,22.96,173.158,28.553z"/>
	<path fill="#003F58" d="M191.268,34.16v1.257c-0.059,0.035-0.122,0.061-0.18,0.094v0.04c-0.187,0.101-0.38,0.174-0.568,0.26
		c-0.115,0.055-0.229,0.107-0.346,0.157c-0.082,0.032-0.166,0.063-0.248,0.092c-0.86,0.338-1.779,0.55-2.756,0.55
		c-0.164,0-0.325-0.007-0.487-0.009c-0.061,0-0.115,0.009-0.178,0.009c-0.073,0-0.134-0.017-0.208-0.017
		c-0.447-0.015-0.881-0.05-1.305-0.098c-0.245-0.03-0.488-0.057-0.719-0.101c-1.942-0.334-3.572-1.137-4.654-2.863
		c-0.932-1.357-1.412-3.087-1.412-5.12V12.52h-3.906v-0.365l10.177-6.945v6.221h6.607v1.091h-6.607l0.052,16.209
		c0,4.153,1.598,5.909,3.887,6.188C189.271,35.022,190.263,34.772,191.268,34.16z"/>
	<path fill="#FFC425" d="M141.742,3.908c0-2.217,1.736-3.908,3.956-3.908c2.219,0,3.956,1.693,3.956,3.91
		c0,2.217-1.737,3.906-3.956,3.906C143.481,7.815,141.742,6.125,141.742,3.908z"/>
	<path opacity="0.3" fill="#00ACC7" d="M125.833,27.672c-1.349,0-3.353-1.939-4.408-5.532c-1.113-3.791-0.346-6.783,1.069-7.198
		c0.119-0.035,0.236-0.052,0.36-0.052c1.381,0,3.416,2.068,4.432,5.527c1.096,3.735,0.316,6.791-1.069,7.198
		C126.09,27.654,125.964,27.672,125.833,27.672L125.833,27.672z"/>
	<path opacity="0.3" fill="#00ACC7" d="M96.954,27.672c-0.131,0-0.257-0.018-0.385-0.056c-1.385-0.407-2.165-3.464-1.069-7.198
		c1.016-3.46,3.051-5.527,4.432-5.527c0.124,0,0.241,0.017,0.359,0.052c1.415,0.416,2.183,3.407,1.069,7.198
		C100.307,25.733,98.303,27.672,96.954,27.672L96.954,27.672z"/>
	<path opacity="0.3" fill="#00ACC7" d="M15.61,32.529c-3.217,0-3.272-1.015-3.308-1.686l-0.001-24.45
		c0-1.135,0.081-1.501,1.789-1.653c0.159-0.014,0.323-0.021,0.485-0.021c4.252,0,10.241,5.101,10.241,16.443
		c0.001,4.488-0.878,7.632-2.611,9.346C20.811,31.887,18.715,32.529,15.61,32.529z"/>
	<polygon fill="#003F58" points="90.582,42.885 90.582,43.59 90.582,44.295 90.582,45 132.202,45 132.202,45 132.202,43.59 
		132.202,42.885 	"/>
</g>
</svg>
